<svg xmlns="http://www.w3.org/2000/svg" width="254" height="70"><g fill="none" fill-rule="evenodd"><path fill="#1AA56E" d="M242.4 52c-1.5 0-2.8-.3-2.8-4.2v-8.2c0-2-.4-3.7-2.7-3.8-2.4-.1-3.9 1.3-4 3.7-.2 3-.1 6 0 8.9 0 2-.5 3.6-2.8 3.7-2.6 0-2.9-1.7-2.8-3.8v-8.6c0-2-.5-3.9-3-4-2.3 0-3.7 1.5-3.8 4v8.5c0 2.1-.4 4-3 3.9-2.3 0-2.6-1.7-2.6-3.7V34.8c0-1.8.2-3.5 2.3-3.8 2-.2 2.7 1.2 3 2.9.7-.6 1.1-1 2.5-1.8 3.4-1.8 7.1 0 9.1 2.4.2.2 1.3-1 1.7-1.4 4-3 8.7-1.5 10.4 1 .6.9.8 1.7.8 2.3l.1 5.5c0 2.8.2 5 0 7.3 0 .6-.2 2.8-2.4 2.8zM15.5 22c4-1 7.9-.6 11.4 1.5 1.5.9 2.7 2 3.5 3.5.8 1.6 1 3.3-.5 4.5-1.7 1.3-3.4.7-4.6-1-1.3-1.7-2.5-3.3-4.8-3.6-3-.3-5.3.7-6.8 3.1a12.9 12.9 0 0 0-.4 13c1.2 2.6 3.7 3.6 6.5 3.5 2.3 0 3.8-1.5 5-3.3 1.3-2 3-3.2 5.2-1.4 2 1.6.9 3.7-.3 5.3-2.8 4-7 5-11.6 4.8-5-.4-8.2-2.2-11-6.7-.3-.4-1.6-3-1.8-5.2-.3-2.3-.5-4.8 0-7.5.7-4.6 4.4-9.3 10.2-10.5z"/><ellipse cx="151.4" cy="10.9" fill="#1AA56E" rx="7.6" ry="7.9"/><path fill="#FF8564" d="M150 50c.2 4.6-.7 9-2 13.4-.8 2.3-1.9 4.3-4.6 3.3-2.6-.9-2.2-3-1.5-5.2 2.3-7.3 2.5-14.6.4-21.9a33.2 33.2 0 0 0-13-18.4c-1.3-.9-2.5-1.7-3.7-2.7-1.4-1.3-2.2-2.8-1-4.7 1-2 2.8-2.3 4.7-1.6 1.2.5 2.3 1.2 3.3 2A46.2 46.2 0 0 1 150.1 50M152 49.7a46.6 46.6 0 0 1 17.5-35.5c1.2-1.1 2.6-2 4.2-2.3 1.7-.2 3 .3 3.9 1.8.9 1.6.5 3.1-.7 4.3-1.1 1.1-2.5 2-3.8 3a35.4 35.4 0 0 0-13 40.2l.5 1.5c.3 1.9 0 3.5-1.9 4-1.9.7-3.4 0-4.1-2a40.6 40.6 0 0 1-2.6-15"/><path fill="#1AA56E" d="M124 50c-5.6 3.2-10.5 2.7-13.4-1.2-3-4-2.4-12.2 1.2-15.8 3.4-3.4 8-3.3 12.2.3.5-1.8 1.5-3.2 3.5-2.7 2.3.5 2 2.3 2 4V51c0 4.2-1.1 7.7-5 9.5-4.3 2-8.5 1.6-12.5-.8-1.6-1-2.7-2.7-1.3-4.6 1.2-1.6 2.8-1.2 4.1 0 2 1.9 4.2 2.7 6.7 1.5 2.5-1.3 2.2-4 2.5-6.7zm-9.5-8.9c0 4 1.6 6.3 4.5 6.4 3 0 4.7-2.1 4.7-6 0-4.1-1.6-6.4-4.4-6.4-3 0-4.7 2.1-4.8 6zM52.7 39.7c0 3 0 5.8.3 8.7.1 1.4.3 2.6-1 3.2-1.4.7-3 .5-3.7-1-.7-1.4-1.2-1.2-2.3-.4a8.1 8.1 0 0 1-7.3 1.5 5.3 5.3 0 0 1-4.2-5.4c0-2.6 1.1-4.5 3.6-5.5 2-.8 4.2-1 6.3-1.2 1.4-.2 3.1-.2 2.9-2.4-.3-1.8-1.8-1.9-3.3-2a5 5 0 0 0-4 1.8c-1.1 1.2-2.5 1.9-3.8.3-1.2-1.5-.2-3 1-4 2-1.9 4.6-2.3 6-2.3 7.6 0 9.5 2 9.5 8.7zm-10.2 8.8c3.2.3 5.2-2.2 4.7-5.8l-5.3 1c-1.3.4-2.4 1.2-2.2 2.7.2 1.4 1.5 2 2.8 2zM201.6 52c-6.3-.2-9.8-4.3-9.6-11 .2-6.3 4.4-10.2 10.5-10 5.8.2 9.6 4.6 9.4 11-.2 6.4-4 10.2-10.3 10zm4.7-10.7c0-3.9-1.6-6.2-4.3-6.3-2.8 0-4.4 2.2-4.5 6 0 4.1 1.6 6.8 4.3 6.8 1.6 0 2.8-.7 3.5-2.2.7-1.3 1-2.8 1-4.3zM91.2 33.5c1.8-1.8 3.8-3 6.3-3 4.4-.1 7.4 2.3 7.6 6.7.2 4 0 8 0 11.9 0 2-1 3-3 3s-2.8-1.2-2.8-3.2v-9.3c0-2.3-.7-4.1-3.4-4.2-2.7 0-4.3 1.4-4.5 4v9c0 2.1-.7 3.7-3.1 3.6-2.3 0-2.8-1.5-2.8-3.5V34.7c0-1.7-.3-3.6 2-4.1 2.4-.5 3 1.4 3.7 3M170 41.6c0-8.3 6.7-13.1 14.3-10.3 1.5.6 2.9 1.4 3.7 2.9.7 1.2 1 2.7-.4 3.7-1.3.9-2.7.7-3.6-.6-1.3-1.9-3-2.7-5.2-1.9-2.2.9-3 2.8-3.1 5-.2 2.5-.2 5.1 2.3 6.5 2 1.1 4 .9 5.5-1.2 1.1-1.5 2.6-2.7 4.2-1.2 1.7 1.6.7 3.3-.6 4.8-2.3 2.6-7.4 3.5-11.4 2-3.8-1.5-5.7-4.8-5.7-9.7M62.6 34.1c1.3-1.4 1.9-2.9 3.4-3.4 1.3-.4 2.5-.2 3.5.7.8.9.9 1.9.5 3a2.4 2.4 0 0 1-2.6 1.8c-3.2-.3-4 1.9-4.2 4.4-.2 2.8-.1 5.6-.1 8.4 0 2-.8 3-2.7 3-1.9 0-2.9-1-2.9-3V34.2c0-1.7.3-3.4 2.2-3.6 2.2-.3 2.9 1.2 2.9 3.5"/><g fill="#1AA56E" transform="translate(74.5 23.5)"><path d="M5.7 17.7V25c0 2-.5 3.4-2.7 3.4-2.1 0-3-1.2-3-3.2V10.2C0 8.2.8 7 2.8 7c2.1 0 3 1.2 3 3.3v7.4"/><ellipse cx="3.1" cy="3.1" rx="2.9" ry="2.9"/></g></g></svg>